<?xml version="1.0" standalone="no"?>
<!DOCTYPE svg PUBLIC "-//W3C//DTD SVG 20010904//EN"
 "http://www.w3.org/TR/2001/REC-SVG-20010904/DTD/svg10.dtd">
<svg version="1.0" xmlns="http://www.w3.org/2000/svg"
 width="1080.000000pt" height="1080.000000pt" viewBox="0 0 1080.000000 1080.000000"
 preserveAspectRatio="xMidYMid meet">
<metadata>
Created by potrace 1.14, written by Peter Selinger 2001-2017
</metadata>
<g transform="translate(0.000000,1080.000000) scale(0.100000,-0.100000)"
fill="#000000" stroke="none">
<path d="M0 5400 l0 -5400 5400 0 5400 0 0 5400 0 5400 -5400 0 -5400 0 0
-5400z m5710 5090 c440 -31 833 -124 1235 -292 136 -56 397 -188 435 -219 14
-11 -31 9 -100 45 -436 226 -884 369 -1355 431 -197 26 -528 30 -755 11 -651
-57 -1179 -241 -1711 -597 -332 -222 -671 -550 -892 -862 -219 -308 -403 -680
-497 -1002 -33 -111 -49 -149 -35 -85 14 66 97 305 146 424 355 844 996 1488
1851 1860 510 222 1115 325 1678 286z m-1023 -116 c-3 -3 -12 -4 -19 -1 -8 3
-5 6 6 6 11 1 17 -2 13 -5z m-40 -10 c-3 -3 -12 -4 -19 -1 -8 3 -5 6 6 6 11 1
17 -2 13 -5z m-52 -14 c-11 -5 -27 -9 -35 -9 -9 0 -8 4 5 9 11 5 27 9 35 9 9
0 8 -4 -5 -9z m-100 -30 c-11 -5 -27 -9 -35 -9 -9 0 -8 4 5 9 11 5 27 9 35 9
9 0 8 -4 -5 -9z m-55 -14 c0 -3 -24 -12 -52 -21 -196 -64 -507 -211 -728 -345
-74 -45 -128 -75 -120 -67 22 21 161 106 285 175 152 84 341 167 585 255 19 7
30 8 30 3z m1370 -167 c1002 -93 1948 -636 2525 -1449 329 -465 549 -1069 572
-1575 8 -175 -10 -155 -32 35 -70 626 -310 1203 -713 1710 -152 191 -449 469
-668 626 -915 652 -2146 802 -3189 387 -370 -147 -723 -369 -985 -619 l-77
-74 -22 24 -23 24 112 99 c490 434 1079 704 1730 793 80 11 163 21 185 23 95
9 480 6 585 -4z m-1422 -18 c22 -13 -24 -40 -270 -160 -123 -60 -268 -136
-323 -169 -425 -253 -801 -623 -1075 -1058 -267 -423 -435 -921 -480 -1424
-13 -148 -13 -443 1 -590 26 -294 104 -623 208 -885 53 -134 51 -112 -5 49
-120 345 -166 648 -167 1106 -1 277 10 403 53 621 107 539 365 1056 740 1477
l83 93 14 -32 c13 -32 13 -33 -35 -83 -157 -164 -334 -414 -467 -659 -26 -48
-45 -90 -43 -92 2 -2 34 47 71 110 84 140 177 273 271 385 81 97 225 250 236
250 4 0 13 -12 21 -27 7 -16 21 -39 31 -52 10 -13 18 -29 18 -35 0 -6 -33 -51
-73 -99 -265 -315 -480 -717 -616 -1152 -93 -299 -106 -397 -98 -735 6 -255
24 -398 76 -615 121 -497 377 -956 736 -1320 94 -96 101 -105 90 -126 -12 -22
-17 -18 -131 97 -436 437 -721 999 -814 1609 -78 511 -22 1016 165 1510 6 14
5 17 -3 10 -18 -17 -109 -257 -147 -387 -42 -145 -79 -320 -99 -473 -12 -94
-12 -140 0 -318 19 -292 42 -456 68 -482 8 -8 26 -65 41 -127 65 -280 149
-511 272 -748 138 -266 286 -472 489 -680 l113 -115 -6 -61 c-7 -82 15 -149
73 -213 81 -90 230 -136 369 -113 65 11 67 10 118 -19 280 -166 656 -302 993
-359 87 -15 137 -30 201 -60 47 -23 114 -47 149 -56 67 -15 214 -20 280 -9 51
9 168 51 219 80 23 13 75 27 123 33 432 59 937 263 1301 523 l84 60 36 -35
c19 -19 33 -37 31 -39 -3 -2 -34 -26 -70 -54 -98 -76 -282 -194 -400 -257
-284 -149 -572 -245 -935 -311 -152 -27 -117 -32 75 -9 176 20 372 56 540 99
212 55 520 215 795 415 65 46 86 57 110 53 21 -3 49 5 90 27 l60 32 -30 -32
c-45 -48 -236 -194 -360 -276 -878 -579 -2003 -687 -2995 -286 -546 220 -1045
609 -1412 1099 -222 297 -405 662 -518 1036 -140 460 -177 1012 -99 1490 84
516 310 1044 627 1462 130 171 327 379 492 520 344 292 840 564 1085 593 6 1
16 -2 23 -7z m1322 -112 c526 -47 1034 -226 1480 -520 77 -51 140 -98 140
-104 0 -6 -11 -22 -25 -35 -19 -18 -30 -22 -40 -15 -543 378 -1014 548 -1660
599 -99 8 -199 20 -223 27 -38 12 -49 11 -90 -5 -26 -10 -78 -22 -117 -27
-231 -31 -301 -42 -400 -64 -167 -38 -317 -85 -347 -111 -15 -12 -94 -48 -175
-80 -176 -69 -418 -190 -524 -261 -88 -60 -283 -218 -319 -259 -30 -34 -14
-23 85 60 95 79 205 156 223 156 21 0 -12 -35 -123 -128 -49 -41 -118 -102
-152 -136 -59 -57 -64 -59 -80 -43 -16 15 -16 18 0 35 25 28 20 39 -6 14 l-23
-22 -28 29 -27 28 78 70 c269 242 609 454 928 581 283 112 629 194 910 215
114 8 408 6 515 -4z m-2190 -153 c0 -3 -15 -14 -32 -26 l-33 -22 30 26 c31 27
35 29 35 22z m-390 -309 c0 -2 -10 -12 -22 -23 l-23 -19 19 23 c18 21 26 27
26 19z m4302 -266 c4 -20 7 -46 7 -59 1 -20 -1 -21 -19 -10 -15 10 -20 24 -20
55 0 50 -17 58 -22 11 l-3 -32 -34 30 -33 30 27 32 27 32 31 -26 c20 -17 35
-40 39 -63z m269 -213 c308 -308 559 -717 700 -1139 41 -122 67 -254 55 -284
-6 -18 -7 -18 -20 1 -7 10 -23 51 -36 89 -166 513 -457 982 -837 1346 l-90 87
-6 62 -7 62 72 -64 c40 -34 116 -107 169 -160z m-5251 -358 c-6 -11 -13 -20
-16 -20 -2 0 0 9 6 20 6 11 13 20 16 20 2 0 0 -9 -6 -20z m-35 -60 c-9 -16
-18 -30 -21 -30 -2 0 2 14 11 30 9 17 18 30 21 30 2 0 -2 -13 -11 -30z m-70
-130 c-167 -333 -277 -707 -327 -1115 -16 -127 -15 -548 0 -680 56 -469 164
-829 379 -1259 87 -175 84 -185 -5 -16 -212 403 -357 886 -402 1339 -15 152
-12 476 5 626 30 251 93 514 182 755 36 98 197 440 207 440 4 0 -14 -41 -39
-90z m-106 -396 c-130 -386 -184 -717 -183 -1124 2 -340 36 -601 119 -904 36
-130 42 -161 24 -116 -42 103 -114 427 -141 635 -18 136 -17 666 0 800 22 163
70 394 111 537 41 137 100 302 107 295 2 -2 -14 -57 -37 -123z m-212 -266 c-3
-8 -6 -5 -6 6 -1 11 2 17 5 13 3 -3 4 -12 1 -19z m-10 -40 c-3 -8 -6 -5 -6 6
-1 11 2 17 5 13 3 -3 4 -12 1 -19z m-10 -40 c-3 -8 -6 -5 -6 6 -1 11 2 17 5
13 3 -3 4 -12 1 -19z m-10 -50 c-3 -7 -5 -2 -5 12 0 14 2 19 5 13 2 -7 2 -19
0 -25z m-10 -50 c-3 -7 -5 -2 -5 12 0 14 2 19 5 13 2 -7 2 -19 0 -25z m-10
-50 c-3 -7 -5 -2 -5 12 0 14 2 19 5 13 2 -7 2 -19 0 -25z m-10 -50 c-3 -8 -6
-5 -6 6 -1 11 2 17 5 13 3 -3 4 -12 1 -19z m-10 -75 c-3 -10 -5 -4 -5 12 0 17
2 24 5 18 2 -7 2 -21 0 -30z m-10 -75 c-3 -7 -5 -2 -5 12 0 14 2 19 5 13 2 -7
2 -19 0 -25z m-10 -85 c-3 -10 -5 -4 -5 12 0 17 2 24 5 18 2 -7 2 -21 0 -30z
m646 -265 c-4 -159 -2 -290 6 -378 57 -619 320 -1188 749 -1617 71 -71 86 -89
45 -53 -136 115 -324 345 -441 540 -183 301 -301 632 -359 1000 -26 166 -24
750 2 750 2 0 1 -109 -2 -242z m-656 140 c-2 -13 -4 -5 -4 17 -1 22 1 32 4 23
2 -10 2 -28 0 -40z m-10 -240 c-2 -13 -4 -3 -4 22 0 25 2 35 4 23 2 -13 2 -33
0 -45z m6800 -50 c-3 -7 -5 -2 -5 12 0 14 2 19 5 13 2 -7 2 -19 0 -25z m10
-145 c-2 -21 -4 -4 -4 37 0 41 2 58 4 38 2 -21 2 -55 0 -75z m-6800 -35 c-2
-13 -4 -5 -4 17 -1 22 1 32 4 23 2 -10 2 -28 0 -40z m10 -115 c-3 -10 -5 -4
-5 12 0 17 2 24 5 18 2 -7 2 -21 0 -30z m10 -85 c-3 -7 -5 -2 -5 12 0 14 2 19
5 13 2 -7 2 -19 0 -25z m6780 -100 c-4 -62 -14 -158 -22 -213 -16 -112 -66
-347 -72 -342 -2 3 10 71 26 153 35 173 61 371 61 455 0 32 3 59 7 59 3 0 3
-51 0 -112z m-6770 30 c-3 -7 -5 -2 -5 12 0 14 2 19 5 13 2 -7 2 -19 0 -25z
m10 -60 c-3 -8 -6 -5 -6 6 -1 11 2 17 5 13 3 -3 4 -12 1 -19z m228 -173 c90
-402 304 -877 550 -1220 128 -179 373 -430 585 -600 566 -454 1172 -696 1889
-756 257 -21 684 -1 971 47 143 23 420 97 555 147 165 61 170 62 88 23 -131
-63 -421 -159 -606 -200 -463 -104 -1032 -98 -1507 15 -883 210 -1576 672
-2088 1391 -126 178 -306 513 -282 528 8 5 -1 37 -28 106 -89 224 -183 569
-181 669 l1 50 13 -40 c7 -22 25 -94 40 -160z m-218 113 c-3 -8 -6 -5 -6 6 -1
11 2 17 5 13 3 -3 4 -12 1 -19z m10 -50 c-3 -8 -6 -5 -6 6 -1 11 2 17 5 13 3
-3 4 -12 1 -19z m30 -130 c-3 -8 -6 -5 -6 6 -1 11 2 17 5 13 3 -3 4 -12 1 -19z
m40 -150 c-3 -8 -6 -5 -6 6 -1 11 2 17 5 13 3 -3 4 -12 1 -19z m197 -188 c5
-20 3 -19 -8 5 -7 17 -16 41 -20 55 -5 20 -3 19 8 -5 7 -16 16 -41 20 -55z
m6363 -12 c-3 -8 -6 -5 -6 6 -1 11 2 17 5 13 3 -3 4 -12 1 -19z m-6337 -53 c0
-5 -5 -3 -10 5 -5 8 -10 20 -10 25 0 6 5 3 10 -5 5 -8 10 -19 10 -25z m5889
-48 c-103 -260 -230 -490 -395 -711 l-78 -103 -23 27 c-13 15 -23 31 -23 35 0
4 20 30 45 57 133 148 299 400 406 615 39 79 75 140 80 137 5 -2 -1 -28 -12
-57z m-5869 -2 c0 -5 -5 -3 -10 5 -5 8 -10 20 -10 25 0 6 5 3 10 -5 5 -8 10
-19 10 -25z m-120 -30 c0 -5 -5 -3 -10 5 -5 8 -10 20 -10 25 0 6 5 3 10 -5 5
-8 10 -19 10 -25z m140 -20 c0 -5 -5 -3 -10 5 -5 8 -10 20 -10 25 0 6 5 3 10
-5 5 -8 10 -19 10 -25z m-120 -30 c0 -5 -5 -3 -10 5 -5 8 -10 20 -10 25 0 6 5
3 10 -5 5 -8 10 -19 10 -25z m6072 -209 c-132 -261 -249 -434 -445 -661 -95
-110 -247 -265 -247 -253 0 4 39 45 86 91 84 81 87 85 92 138 5 50 10 59 84
143 159 180 380 490 444 622 40 83 57 109 62 94 3 -8 -32 -86 -76 -174z
m-5998 57 c20 -40 34 -73 31 -73 -5 0 -75 136 -75 146 0 12 6 1 44 -73z m6196
-34 c-56 -111 -148 -269 -157 -269 -3 0 1 10 9 23 40 61 101 172 144 259 27
54 50 96 52 94 2 -2 -20 -50 -48 -107z m-5934 -246 c33 -54 63 -103 67 -110 4
-7 6 -13 3 -13 -3 0 -29 39 -59 88 -61 98 -80 132 -74 132 3 0 31 -44 63 -97z
m1094 -379 c0 -7 -78 50 -125 92 -22 19 -3 8 43 -26 45 -33 82 -63 82 -66z
m4004 67 l28 -29 -37 -41 c-21 -23 -41 -41 -45 -41 -4 0 -15 11 -23 24 -15 23
-15 24 3 19 22 -6 26 12 10 37 -6 10 -3 21 12 37 12 13 22 23 23 23 1 0 14
-13 29 -29z m-4024 -149 c63 -48 159 -114 212 -147 84 -52 95 -62 83 -74 -12
-12 -25 -8 -97 34 -105 60 -194 122 -312 215 -86 68 -93 76 -83 97 l10 23 36
-31 c20 -16 88 -69 151 -117z m-880 53 c13 -14 21 -25 18 -25 -2 0 -15 11 -28
25 -13 14 -21 25 -18 25 2 0 15 -11 28 -25z m4987 -67 c-14 -34 -41 -57 -53
-45 -6 6 52 77 63 77 2 0 -3 -14 -10 -32z m-4307 -3 c19 -23 174 -145 260
-205 l75 -52 -68 5 c-112 10 -201 63 -252 151 -41 72 -52 146 -15 101z m-570
-50 c30 -30 52 -55 49 -55 -2 0 -29 25 -59 55 -30 30 -52 55 -49 55 2 0 29
-25 59 -55z m5140 52 c0 -2 -10 -12 -22 -23 l-23 -19 19 23 c18 21 26 27 26
19z m-499 -34 c13 -16 12 -17 -3 -4 -10 7 -18 15 -18 17 0 8 8 3 21 -13z m163
-52 c7 -11 -42 -57 -51 -48 -3 4 -1 7 5 7 7 0 12 11 12 25 0 24 23 35 34 16z
m226 -34 c0 -1 -30 -32 -67 -67 l-68 -65 65 68 c60 62 70 72 70 64z m-4895
-67 c21 -22 37 -40 34 -40 -3 0 -23 18 -44 40 -21 22 -37 40 -34 40 3 0 23
-18 44 -40z m492 -32 c-3 -8 -6 -5 -6 6 -1 11 2 17 5 13 3 -3 4 -12 1 -19z
m493 7 c0 -2 -10 -9 -22 -15 -22 -11 -22 -10 -4 4 21 17 26 19 26 11z m-450
-38 c0 -5 -4 -5 -10 -2 -5 3 -10 14 -10 23 0 15 2 15 10 2 5 -8 10 -19 10 -23z
m738 -96 c128 -51 299 -103 437 -132 95 -20 133 -34 121 -46 -7 -8 -280 51
-385 83 -128 39 -314 110 -405 156 -53 27 -56 30 -40 43 16 11 29 8 96 -26 43
-21 122 -57 176 -78z m-698 76 c0 -5 -4 -5 -10 -2 -5 3 -10 14 -10 23 0 15 2
15 10 2 5 -8 10 -19 10 -23z m-475 -7 c10 -11 16 -20 13 -20 -3 0 -13 9 -23
20 -10 11 -16 20 -13 20 3 0 13 -9 23 -20z m515 5 c10 -12 10 -15 -4 -15 -9 0
-16 7 -16 15 0 8 2 15 4 15 2 0 9 -7 16 -15z m50 -15 c0 -5 -4 -10 -10 -10 -5
0 -10 5 -10 10 0 6 5 10 10 10 6 0 10 -4 10 -10z m49 -2 c11 -10 14 -10 18 0
5 14 61 16 82 3 16 -11 -60 -25 -99 -19 -22 3 -42 28 -23 28 5 0 15 -6 22 -12z
m3991 -11 c0 -2 -12 -14 -27 -28 l-28 -24 24 28 c23 25 31 32 31 24z m-4545
-27 c10 -11 16 -20 13 -20 -3 0 -13 9 -23 20 -10 11 -16 20 -13 20 3 0 13 -9
23 -20z m50 -40 c10 -11 16 -20 13 -20 -3 0 -13 9 -23 20 -10 11 -16 20 -13
20 3 0 13 -9 23 -20z m4425 7 c0 -2 -12 -14 -27 -28 l-28 -24 24 28 c23 25 31
32 31 24z m-4379 -44 c13 -16 12 -17 -3 -4 -17 13 -22 21 -14 21 2 0 10 -8 17
-17z m4319 -6 c0 -2 -10 -12 -22 -23 l-23 -19 19 23 c18 21 26 27 26 19z
m-4239 -54 c13 -16 12 -17 -3 -4 -17 13 -22 21 -14 21 2 0 10 -8 17 -17z
m4189 13 c0 -2 -8 -10 -17 -17 -16 -13 -17 -12 -4 4 13 16 21 21 21 13z m-40
-30 c0 -2 -8 -10 -17 -17 -16 -13 -17 -12 -4 4 13 16 21 21 21 13z m-40 -30
c0 -2 -8 -10 -17 -17 -16 -13 -17 -12 -4 4 13 16 21 21 21 13z m-2098 -33 c16
-10 -119 -20 -186 -13 -30 3 -51 11 -54 19 -4 12 14 13 111 8 64 -3 122 -9
129 -14z m-1512 -198 c25 -13 41 -24 35 -24 -5 0 -30 11 -55 24 -25 13 -40 24
-35 24 6 0 30 -11 55 -24z m130 -60 c14 -8 21 -14 15 -14 -5 0 -21 6 -35 14
-14 8 -20 14 -15 14 6 0 21 -6 35 -14z m3020 5 c-8 -5 -19 -10 -25 -10 -5 0
-3 5 5 10 8 5 20 10 25 10 6 0 3 -5 -5 -10z m-2940 -40 c8 -5 11 -10 5 -10 -5
0 -17 5 -25 10 -8 5 -10 10 -5 10 6 0 17 -5 25 -10z m50 -20 c8 -5 11 -10 5
-10 -5 0 -17 5 -25 10 -8 5 -10 10 -5 10 6 0 17 -5 25 -10z m75 -31 c22 -10
29 -16 15 -13 -28 7 -80 33 -65 33 6 0 28 -9 50 -20z m120 -45 c24 -11 25 -13
5 -8 -14 4 -38 13 -55 20 -24 11 -25 13 -5 8 14 -4 39 -13 55 -20z m230 -74
c13 -5 14 -9 5 -9 -8 0 -24 4 -35 9 -13 5 -14 9 -5 9 8 0 24 -4 35 -9z m70
-20 c13 -5 14 -9 5 -9 -8 0 -24 4 -35 9 -13 5 -14 9 -5 9 8 0 24 -4 35 -9z
m52 -16 c-3 -3 -12 -4 -19 -1 -8 3 -5 6 6 6 11 1 17 -2 13 -5z m40 -10 c-3 -3
-12 -4 -19 -1 -8 3 -5 6 6 6 11 1 17 -2 13 -5z m216 -51 c-7 -2 -19 -2 -25 0
-7 3 -2 5 12 5 14 0 19 -2 13 -5z m50 -10 c-7 -2 -19 -2 -25 0 -7 3 -2 5 12 5
14 0 19 -2 13 -5z m50 -10 c-7 -2 -19 -2 -25 0 -7 3 -2 5 12 5 14 0 19 -2 13
-5z m70 -10 c-7 -2 -19 -2 -25 0 -7 3 -2 5 12 5 14 0 19 -2 13 -5z m70 -10
c-7 -2 -19 -2 -25 0 -7 3 -2 5 12 5 14 0 19 -2 13 -5z m325 -336 c6 -7 117
-280 247 -607 169 -423 235 -600 230 -617 -3 -13 -16 -29 -30 -35 -54 -24 -59
-15 -281 543 l-207 522 -209 -527 c-185 -465 -213 -528 -235 -537 -31 -11 -67
8 -76 40 -6 23 454 1184 480 1214 19 20 66 23 81 4z m-2263 -37 c43 -11 89
-27 102 -35 32 -22 31 -69 -2 -91 -24 -16 -30 -15 -103 7 -101 31 -258 34
-312 5 -135 -71 -196 -233 -136 -361 30 -64 81 -109 175 -153 176 -80 201 -94
222 -123 23 -33 35 -102 25 -143 -12 -48 -64 -95 -124 -112 -97 -29 -263 5
-375 76 -52 33 -62 67 -30 102 23 25 45 23 106 -12 119 -67 289 -81 311 -24
12 30 -21 61 -101 94 -130 54 -174 80 -234 137 -82 78 -114 151 -113 263 1 97
17 149 71 228 42 62 113 116 185 142 74 27 228 27 333 0z m615 0 c20 -20 20
-33 20 -608 0 -624 1 -612 -47 -627 -17 -4 -29 1 -48 19 l-25 25 0 576 c0 576
2 606 34 627 19 13 45 9 66 -12z m230 0 c19 -19 20 -33 20 -230 l0 -210 110 0
110 0 0 201 c0 195 5 232 34 251 19 13 45 9 66 -12 19 -19 20 -33 20 -267 0
-215 -2 -249 -17 -265 -15 -16 -35 -18 -214 -18 -193 0 -198 1 -213 22 -13 19
-16 62 -16 265 0 230 1 244 20 263 11 11 29 20 40 20 11 0 29 -9 40 -20z m570
0 c20 -20 20 -33 20 -605 l0 -586 -25 -24 c-29 -30 -35 -31 -69 -4 l-26 20 0
590 c0 576 0 589 20 609 11 11 29 20 40 20 11 0 29 -9 40 -20z m2253 -8 c81
-33 168 -116 209 -200 31 -62 33 -73 33 -172 0 -97 -2 -110 -31 -171 -39 -81
-115 -158 -189 -190 -30 -13 -55 -27 -55 -32 0 -4 59 -91 130 -194 140 -200
151 -229 105 -259 -13 -8 -33 -13 -43 -10 -20 7 -338 451 -356 499 -15 39 14
65 86 77 149 24 242 133 242 285 0 85 -31 154 -95 208 -70 60 -105 67 -351 67
l-218 0 0 -540 c0 -377 -3 -546 -11 -564 -10 -21 -34 -35 -61 -36 -5 0 -17 9
-28 20 -20 20 -20 33 -20 610 0 582 0 590 21 611 20 20 29 20 297 17 263 -3
280 -4 335 -26z m1109 17 c119 -25 210 -98 261 -207 26 -56 32 -82 35 -158 8
-187 -67 -323 -218 -393 -49 -22 -71 -26 -192 -29 l-138 -4 0 -213 c0 -231 -2
-237 -56 -237 -57 0 -59 9 -59 282 0 226 2 251 18 267 15 15 43 19 185 24 92
3 179 10 193 16 45 19 99 73 127 127 22 43 27 64 27 132 0 70 -4 88 -30 139
-34 66 -93 118 -153 135 -20 5 -137 10 -259 10 l-223 0 0 -554 c0 -602 2 -578
-55 -578 -57 0 -55 -28 -55 623 l0 598 22 15 c19 14 62 16 270 16 145 0 269
-5 300 -11z m-4800 -238 c90 -24 118 -44 118 -81 0 -20 -8 -35 -24 -45 -23
-15 -30 -15 -106 9 -44 14 -100 26 -123 26 -72 0 -111 -46 -69 -82 9 -9 55
-32 101 -52 212 -91 308 -187 332 -334 16 -104 -16 -230 -81 -312 -97 -122
-302 -173 -510 -125 -80 19 -199 68 -212 88 -22 34 7 87 46 87 12 0 53 -13 91
-29 277 -116 532 -23 552 201 13 141 -43 213 -244 308 -172 83 -205 116 -205
206 0 131 143 188 334 135z m3613 -4 c58 -33 87 -88 82 -160 -6 -102 -60 -150
-173 -155 -85 -5 -114 10 -114 59 0 36 11 42 89 50 87 9 112 41 72 90 -18 22
-28 24 -150 29 -102 4 -134 8 -141 20 -15 23 -12 51 7 72 14 16 33 18 152 18
122 0 140 -3 176 -23z m1161 2 c59 -28 89 -78 88 -149 0 -65 -21 -109 -66
-142 -27 -19 -49 -24 -115 -26 -79 -4 -82 -3 -99 23 -16 25 -16 30 -3 54 13
22 23 27 75 31 70 6 94 21 94 59 0 46 -15 51 -139 51 -135 0 -164 10 -169 56
-6 57 13 64 161 64 112 0 137 -3 173 -21z m-2488 -362 c16 -19 102 -229 102
-249 0 -9 -12 -26 -26 -37 -22 -18 -41 -21 -113 -21 -103 0 -135 13 -139 56
-4 45 19 64 79 64 27 0 49 2 49 5 0 3 -11 33 -25 67 -29 72 -31 91 -9 112 19
19 67 21 82 3z m-1079 -91 c20 -18 21 -28 21 -266 0 -260 -2 -271 -47 -285
-17 -4 -29 1 -48 19 l-25 25 0 206 0 205 -110 0 -110 0 0 -205 c0 -205 0 -206
-25 -230 -29 -30 -35 -31 -69 -4 l-26 20 0 240 c0 250 3 273 43 289 12 5 101
8 198 7 158 -2 179 -4 198 -21z m2253 -211 c189 -269 190 -272 183 -294 -9
-29 -49 -54 -73 -46 -11 3 -55 57 -98 119 l-79 114 -5 -100 c-4 -90 -7 -102
-29 -119 -30 -24 -46 -24 -71 1 -19 19 -20 33 -20 227 0 180 2 209 17 225 11
12 27 18 47 16 25 -3 43 -22 128 -143z m-999 -132 c21 -24 57 -117 57 -148 0
-15 -10 -31 -25 -41 -36 -24 -70 -6 -91 46 l-16 40 -142 0 -142 0 -13 -35
c-17 -48 -53 -72 -86 -57 -35 16 -39 50 -14 118 36 99 23 94 254 94 180 0 204
-2 218 -17z m-527 -637 c82 -22 124 -43 124 -63 -1 -24 -33 -95 -51 -110 -12
-10 -28 -7 -79 11 -126 45 -211 39 -238 -17 -19 -40 5 -72 76 -104 171 -74
215 -99 252 -140 89 -102 74 -266 -31 -343 -96 -69 -260 -85 -398 -37 -126 44
-139 62 -102 136 33 63 39 65 117 29 52 -23 88 -32 146 -36 72 -4 78 -3 102
21 52 52 19 116 -80 156 -213 87 -284 155 -284 273 0 109 95 211 222 238 52
11 156 4 224 -14z m2717 -3 c82 -24 107 -40 107 -69 0 -25 -33 -98 -48 -108
-5 -3 -42 6 -82 20 -101 35 -180 37 -214 5 -33 -31 -33 -66 -2 -94 14 -12 77
-44 140 -70 174 -74 226 -133 226 -259 0 -80 -24 -133 -81 -181 -105 -90 -316
-95 -482 -10 -44 22 -48 27 -42 51 8 34 53 112 64 112 5 0 39 -14 76 -32 51
-23 87 -32 142 -36 67 -4 76 -3 98 18 30 28 33 78 8 109 -10 12 -68 43 -130
70 -187 82 -226 121 -231 236 -5 85 15 132 74 185 88 77 230 97 377 53z
m-4640 11 l46 -7 39 -166 c22 -91 48 -205 57 -253 10 -49 21 -88 25 -88 3 0
12 30 19 68 6 37 32 151 57 254 l46 186 60 7 c74 9 188 -2 188 -18 0 -7 14
-181 30 -387 16 -206 30 -385 30 -398 0 -22 -2 -23 -87 -20 l-88 3 -6 90 c-4
50 -10 184 -14 298 -5 114 -11 210 -15 212 -3 2 -33 -106 -65 -241 l-59 -244
-97 0 -97 0 -57 238 c-31 130 -61 241 -66 247 -5 5 -9 -34 -10 -95 0 -58 -6
-195 -12 -305 l-12 -200 -87 -3 -88 -3 0 28 c0 15 14 197 30 403 16 206 30
378 30 382 0 14 131 22 203 12z m1163 -7 c3 -6 254 -794 254 -799 0 -9 -60
-28 -90 -28 -75 0 -106 30 -136 132 l-15 49 -136 -3 -136 -3 -23 -79 c-13 -44
-26 -82 -30 -85 -9 -9 -154 -5 -164 5 -5 5 47 179 123 411 l132 402 35 4 c31
4 183 -1 186 -6z m2758 -13 c93 -32 156 -127 156 -234 0 -74 -44 -158 -105
-199 l-35 -23 25 -20 c31 -24 47 -54 81 -150 15 -40 37 -87 50 -104 27 -36 23
-43 -39 -69 -97 -40 -140 -7 -197 150 -23 64 -48 117 -61 128 -14 11 -38 17
-70 17 l-49 0 0 -150 0 -151 -92 3 -93 3 0 405 0 405 100 6 c143 9 272 2 329
-17z m-1214 -42 c0 -83 -17 -96 -126 -101 l-84 -3 0 -329 0 -330 -92 3 -93 3
-3 328 -2 327 -100 0 -100 0 0 80 0 80 300 0 300 0 0 -58z m620 -6 c0 -102 11
-96 -176 -96 l-164 0 0 -85 0 -85 134 0 c149 0 146 1 146 -75 0 -75 2 -74
-144 -77 l-131 -3 0 -88 0 -89 184 2 184 1 -7 -47 c-7 -57 -28 -91 -62 -104
-14 -6 -115 -10 -225 -10 l-201 0 -29 29 -29 29 0 381 0 381 260 0 260 0 0
-64z"/>
<path d="M3690 4314 c396 -256 846 -423 1320 -490 248 -34 623 -34 866 1 119
18 213 40 121 29 -511 -59 -903 -37 -1349 77 -301 76 -675 230 -930 383 -121
72 -139 72 -28 0z"/>
<path d="M4190 1339 c-6 -24 -24 -93 -40 -152 -17 -59 -30 -112 -30 -117 0 -6
37 -10 86 -10 l86 0 -4 28 c-9 51 -71 277 -79 286 -4 5 -13 -11 -19 -35z"/>
<path d="M6840 1305 l0 -115 66 0 c92 0 126 21 139 87 3 18 1 51 -5 73 -14 52
-48 70 -135 70 l-65 0 0 -115z"/>
</g>
</svg>
