<svg xmlns="http://www.w3.org/2000/svg" version="1.1" xmlns:xlink="http://www.w3.org/1999/xlink" xmlns:svgjs="http://svgjs.dev/svgjs" width="1000" height="1000" viewBox="0 0 1000 1000"><rect width="1000" height="1000" fill="#000000"></rect><g transform="matrix(0.7,0,0,0.7,150,281.25)"><svg viewBox="0 0 512 320" data-background-color="#5e1914" preserveAspectRatio="xMidYMid meet" height="625" width="1000" xmlns="http://www.w3.org/2000/svg" xmlns:xlink="http://www.w3.org/1999/xlink"><g id="tight-bounds" transform="matrix(1,0,0,1,0,0)"><svg viewBox="0 0 512 320" height="320" width="512"><g><svg></svg></g><g><svg viewBox="0 0 512 320" height="320" width="512"><g><path d="M96 160c0-88.366 71.634-160 160-160 88.366 0 160 71.634 160 160 0 88.366-71.634 160-160 160-88.366 0-160-71.634-160-160zM256 317.808c87.155 0 157.808-70.653 157.808-157.808 0-87.155-70.653-157.808-157.808-157.808-87.155 0-157.808 70.653-157.808 157.808 0 87.155 70.653 157.808 157.808 157.808z" fill="#ffffff" fill-rule="nonzero" stroke="none" stroke-width="1" stroke-linecap="butt" stroke-linejoin="miter" stroke-miterlimit="10" stroke-dasharray="" stroke-dashoffset="0" font-family="none" font-weight="none" font-size="none" text-anchor="none" style="mix-blend-mode: normal" data-fill-palette-color="tertiary"></path></g><g transform="matrix(1,0,0,1,116.13999999999999,20.139999999999986)"><svg viewBox="0 0 279.72 279.72" height="279.72" width="279.72"><g><svg viewBox="0 0 279.72 279.72" height="279.72" width="279.72"><g><svg viewBox="0 0 279.72 279.72" height="279.72" width="279.72"><g id="textblocktransform"><svg viewBox="0 0 279.72 279.72" height="279.72" width="279.72" id="textblock"><g><svg viewBox="0 0 279.72 279.72" height="279.72" width="279.72"><g transform="matrix(1,0,0,1,57.446704652707865,57.446704652707865)"><svg viewBox="0 0 164.8265906945843 164.8265906945843" height="164.8265906945843" width="164.8265906945843"><g><circle r="82" cx="82.41329534729215" cy="82.41329534729215" fill="#ffffff" data-fill-palette-color="accent"></circle><svg xmlns="http://www.w3.org/2000/svg" xmlns:xlink="http://www.w3.org/1999/xlink" version="1.1" x="24.723988604187646" y="24.72398860418764" viewBox="0 5.449485414294974 89.89999999999998 78.96561611642352" enable-background="new 0 0 90 90" xml:space="preserve" height="115.378613486209" width="115.378613486209" class="icon-kg-0" data-fill-palette-color="quaternary" id="kg-0"><g fill="#5e1914" data-fill-palette-color="quaternary"><path d="M48.6 59.4l-1.4-1.2C39.9 52.3 35.7 48 31.6 43.9 14.7 27 7.7 15.9 5.1 10.8L3.6 7.9l0.5-0.3 1.5 2.9c2.6 5.1 9.5 16.2 26.4 33 4.1 4.1 8.4 8.4 15.6 14.3l1.4 1.2L48.6 59.4z" fill="#000000" data-fill-palette-color="quaternary"></path></g><path d="M60.7 46.8l-3.3-3.3L28.1 14.2C15.9 1.9 2.7 6.1 2.2 6.3L0 7l0.7 2.2c0.2 0.5 4.5 13 28.2 36.7 4.4 4.4 9 9 17.2 15.6 1.4 1.3 2.7 0.3 4.4-1.1l5.5-4.5c0.6 0.2 1.1 0.4 1.4 0.6 2.4 2.4 4.1 9 8.1 13 4.1 4.1 9.8 4.9 12.2 7.3 1.6 1.6 0 4.9 1.6 6.5 1.6 1.6 4.9 1.6 7.3-0.8 3.3-3.3 3.3-6.5 3.3-6.5L60.7 46.8zM55.8 48.6c-2 1.8-2.9 3-3.4 3.7l3.3 1.6-3.4 2.8c-0.9 0.7-1.7 1.4-2.4 2l-2.3 1.8L45.9 59c-7.3-5.9-11.5-10.2-15.7-14.3C13.3 27.8 6.4 16.6 3.7 11.5L1.9 7.9l4.1-0.4c0.8-0.1 1.6-0.1 2.4-0.1 4.7 0 11.8 1.4 18.6 8.2L58 46.6 55.8 48.6zM62.3 54.9c-0.9 0.9-2.4 0.9-3.3 0-0.9-0.9-0.9-2.4 0-3.3 0.9-0.9 2.4-0.9 3.3 0C63.2 52.5 63.2 54 62.3 54.9zM72.9 65.5c-0.9 0.9-2.4 0.9-3.3 0-0.9-0.9-0.9-2.4 0-3.3 0.9-0.9 2.4-0.9 3.3 0C73.8 63.1 73.8 64.6 72.9 65.5zM82.7 75.2c-0.9 0.9-2.4 0.9-3.3 0-0.9-0.9-0.9-2.4 0-3.3 0.9-0.9 2.4-0.9 3.3 0C83.6 72.9 83.6 74.3 82.7 75.2z" fill="#000000" data-fill-palette-color="quaternary"></path></svg></g></svg></g><g><path d="M34.115 104.25v0c-0.487 1.422-1.133 2.659-1.938 3.71-0.805 1.052-1.722 1.885-2.752 2.5-1.027 0.608-2.125 0.988-3.292 1.139v0c-0.319 0.046-0.581-0.036-0.784-0.247-0.212-0.207-0.311-0.474-0.297-0.801v0c-0.004-0.277 0.094-0.522 0.294-0.736 0.192-0.21 0.438-0.341 0.738-0.393v0c0.859-0.158 1.675-0.479 2.448-0.962 0.771-0.477 1.456-1.129 2.056-1.954 0.598-0.819 1.094-1.804 1.489-2.954v0c0.441-1.289 0.609-2.478 0.501-3.567-0.107-1.089-0.495-2.03-1.162-2.823-0.659-0.798-1.589-1.402-2.79-1.813v0c-1.491-0.511-2.936-0.405-4.334 0.316-1.398 0.722-2.622 2.131-3.672 4.229v0c-1.228 2.411-2.728 4.111-4.5 5.099-1.763 0.985-3.562 1.163-5.394 0.536v0c-1.333-0.457-2.386-1.188-3.157-2.193-0.769-1.012-1.221-2.219-1.355-3.62-0.143-1.397 0.057-2.889 0.6-4.476v0c0.403-1.175 0.967-2.196 1.695-3.063 0.725-0.86 1.526-1.56 2.403-2.1 0.881-0.531 1.729-0.884 2.544-1.056v0c0.307-0.071 0.586-0.022 0.838 0.149 0.256 0.18 0.391 0.434 0.406 0.764v0c0.002 0.283-0.077 0.535-0.237 0.755-0.167 0.218-0.392 0.371-0.676 0.457v0c-0.582 0.154-1.182 0.4-1.799 0.74-0.626 0.343-1.215 0.837-1.768 1.481-0.548 0.652-1.004 1.51-1.368 2.571v0c-0.636 1.858-0.719 3.461-0.248 4.808 0.477 1.35 1.483 2.287 3.019 2.813v0c0.815 0.279 1.632 0.315 2.452 0.109 0.821-0.213 1.632-0.715 2.433-1.508 0.799-0.786 1.576-1.871 2.333-3.257v0c1.493-2.751 3.109-4.542 4.848-5.372 1.741-0.837 3.62-0.91 5.635-0.22v0c1.175 0.403 2.172 0.966 2.99 1.691 0.812 0.723 1.421 1.563 1.827 2.521 0.406 0.958 0.608 2.009 0.605 3.151 0.005 1.139-0.205 2.33-0.631 3.576z" fill="#ffffff" data-fill-palette-color="primary"></path><path d="M50.336 73.138v0c-0.163 0.26-0.385 0.425-0.665 0.493-0.282 0.06-0.553 0.008-0.814-0.156v0l-8.179-5.138c-1.335-0.839-2.6-1.274-3.794-1.306-1.198-0.027-2.29 0.261-3.276 0.864-0.99 0.609-1.835 1.47-2.535 2.585v0c-0.689 1.097-1.101 2.211-1.235 3.342-0.129 1.134 0.011 2.18 0.419 3.138 0.41 0.967 1.073 1.739 1.989 2.315v0l-0.954 1.518c-1.206-0.868-2.101-1.955-2.685-3.26-0.582-1.296-0.824-2.663-0.726-4.1 0.098-1.437 0.554-2.803 1.368-4.099v0c0.917-1.459 2.038-2.585 3.364-3.377 1.328-0.783 2.775-1.152 4.34-1.108 1.568 0.054 3.191 0.608 4.871 1.664v0l8.179 5.138c0.26 0.163 0.423 0.388 0.488 0.673 0.063 0.276 0.011 0.547-0.155 0.814zM41.882 86.594v0c-0.167 0.266-0.389 0.43-0.664 0.494-0.285 0.065-0.558 0.016-0.819-0.148v0l-14.806-9.3c-0.283-0.178-0.448-0.404-0.496-0.679-0.057-0.273-0.003-0.542 0.164-0.808v0c0.178-0.283 0.4-0.455 0.667-0.516 0.258-0.059 0.528 0.001 0.811 0.178v0l14.806 9.301c0.26 0.163 0.428 0.379 0.504 0.648 0.067 0.271 0.011 0.547-0.167 0.83zM34.586 82.011v0c-0.167 0.266-0.389 0.43-0.665 0.493-0.28 0.069-0.553 0.02-0.819-0.147v0l-14.619-9.184c-0.283-0.178-0.451-0.406-0.505-0.684-0.052-0.269 0.006-0.537 0.173-0.802v0c0.178-0.283 0.397-0.457 0.659-0.521 0.264-0.055 0.537 0.006 0.819 0.183v0l14.619 9.183c0.266 0.167 0.434 0.383 0.504 0.648 0.067 0.271 0.011 0.547-0.166 0.831z" fill="#ffffff" data-fill-palette-color="primary"></path><path d="M64.393 59.012v0c-1.388 1.322-2.931 2.192-4.628 2.608-1.706 0.417-3.397 0.375-5.072-0.124-1.684-0.499-3.178-1.434-4.481-2.802v0c-1.317-1.383-2.185-2.928-2.601-4.635-0.417-1.697-0.376-3.387 0.124-5.071 0.495-1.679 1.436-3.18 2.824-4.503v0c1.383-1.317 2.924-2.18 4.62-2.587 1.697-0.407 3.382-0.362 5.057 0.138 1.684 0.499 3.185 1.441 4.502 2.824v0l0.335 1.66c1.124 1.18 1.84 2.514 2.149 4 0.313 1.491 0.237 2.98-0.229 4.466-0.471 1.482-1.338 2.823-2.6 4.026zM63.011 57.561v0c1.088-1.036 1.819-2.221 2.191-3.554 0.372-1.323 0.389-2.658 0.048-4.003-0.34-1.345-1.031-2.565-2.072-3.658v0c-1.055-1.108-2.246-1.864-3.573-2.27-1.327-0.406-2.661-0.455-4.001-0.148-1.349 0.307-2.568 0.979-3.656 2.016v0c-1.074 1.023-1.8 2.203-2.177 3.54-0.382 1.333-0.408 2.676-0.078 4.031 0.331 1.355 1.024 2.586 2.079 3.693v0c1.041 1.093 2.23 1.838 3.567 2.235 1.337 0.396 2.68 0.436 4.03 0.119 1.354-0.312 2.568-0.979 3.642-2.001zM70.742 52.675v0c-0.242 0.23-0.504 0.342-0.788 0.335-0.293-0.007-0.545-0.122-0.757-0.344v0l-4.533-4.76-0.992-2.03 1.066-1.016 6.019 6.32c0.212 0.223 0.319 0.476 0.321 0.759 0.003 0.274-0.11 0.519-0.336 0.736z" fill="#ffffff" data-fill-palette-color="primary"></path><path d="M75.047 35.382l-1.218 0.754c-0.685-1.375-1.045-2.75-1.08-4.127-0.031-1.371 0.246-2.63 0.832-3.778 0.583-1.154 1.442-2.082 2.578-2.785v0c0.773-0.478 1.433-0.757 1.981-0.836 0.539-0.082 0.901 0.142 1.086 0.671v0c0.127 0.345 0.099 0.618-0.083 0.818-0.192 0.197-0.46 0.367-0.804 0.509-0.346 0.151-0.713 0.346-1.099 0.585v0c-1.017 0.629-1.788 1.401-2.315 2.315-0.532 0.918-0.792 1.888-0.78 2.91 0.008 1.016 0.309 2.004 0.902 2.964zM80.439 46.138v0c-0.267 0.165-0.538 0.215-0.814 0.15-0.285-0.067-0.508-0.231-0.67-0.492v0l-9.197-14.871c-0.176-0.284-0.225-0.56-0.147-0.828 0.069-0.27 0.236-0.488 0.503-0.653v0c0.284-0.176 0.559-0.232 0.826-0.169 0.257 0.061 0.474 0.233 0.65 0.517v0l9.197 14.87c0.162 0.261 0.217 0.529 0.167 0.804-0.059 0.272-0.231 0.496-0.515 0.672z" fill="#ffffff" data-fill-palette-color="primary"></path><path d="M100.945 45.025v0c-0.296 0.106-0.571 0.098-0.828-0.023-0.265-0.125-0.449-0.332-0.553-0.621v0l-5.85-16.317c-0.588-1.797-0.721-3.534-0.4-5.211 0.325-1.685 1.053-3.188 2.183-4.509 1.124-1.318 2.566-2.293 4.327-2.924v0c1.798-0.645 3.562-0.812 5.291-0.503 1.723 0.312 3.252 1.034 4.587 2.166 1.331 1.141 2.32 2.61 2.965 4.408v0c0.638 1.779 0.805 3.533 0.502 5.259-0.312 1.723-1.034 3.252-2.166 4.588-1.141 1.331-2.61 2.32-4.408 2.964v0c-1.622 0.582-3.206 0.756-4.752 0.522-1.546-0.234-2.89-0.805-4.032-1.715v0l3.781 10.544c0.104 0.289 0.102 0.563-0.004 0.821-0.115 0.254-0.329 0.437-0.643 0.55zM105.918 32.416v0c1.415-0.507 2.562-1.295 3.443-2.363 0.876-1.059 1.437-2.275 1.683-3.648 0.246-1.373 0.114-2.769-0.395-4.19v0c-0.516-1.44-1.305-2.612-2.368-3.516-1.062-0.904-2.268-1.486-3.618-1.747-1.358-0.265-2.745-0.144-4.159 0.364v0c-1.396 0.501-2.54 1.287-3.433 2.359-0.889 1.064-1.45 2.28-1.683 3.648-0.233 1.368-0.092 2.772 0.424 4.212v0c0.51 1.421 1.289 2.586 2.339 3.493 1.049 0.908 2.255 1.491 3.617 1.747 1.371 0.261 2.754 0.141 4.15-0.359z" fill="#ffffff" data-fill-palette-color="primary"></path><path d="M126.21 29.564v0c-0.313 0.019-0.576-0.065-0.789-0.253-0.219-0.194-0.339-0.444-0.357-0.751v0l-1.588-25.832c-0.019-0.307 0.069-0.57 0.263-0.789 0.188-0.212 0.438-0.328 0.752-0.348v0c0.473-0.029 0.804 0.131 0.993 0.481v0l14.219 24.253-1.25 0.077 10.963-25.8c0.191-0.373 0.5-0.573 0.927-0.599v0c0.313-0.019 0.573 0.065 0.778 0.253 0.199 0.195 0.308 0.446 0.328 0.753v0l1.587 25.832c0.019 0.307-0.059 0.569-0.233 0.787-0.181 0.212-0.428 0.327-0.741 0.347v0c-0.307 0.019-0.573-0.065-0.799-0.252-0.233-0.193-0.359-0.443-0.377-0.75v0l-1.429-23.252 0.551 0.147-9.99 23.984c-0.146 0.344-0.446 0.529-0.899 0.557v0c-0.433 0.027-0.784-0.179-1.052-0.618v0l-12.991-22.391 0.709-0.224 1.429 23.252c0.019 0.307-0.065 0.57-0.253 0.788-0.194 0.213-0.445 0.329-0.751 0.348z" fill="#ffffff" data-fill-palette-color="primary"></path><path d="M171.732 32.31v0c-1.864-0.447-3.432-1.27-4.704-2.469-1.277-1.206-2.161-2.648-2.652-4.325-0.496-1.685-0.523-3.447-0.081-5.285v0c0.446-1.858 1.272-3.425 2.477-4.701 1.198-1.272 2.64-2.156 4.325-2.652 1.679-0.497 3.45-0.522 5.315-0.074v0c1.858 0.446 3.418 1.27 4.682 2.473 1.264 1.203 2.141 2.643 2.632 4.32 0.496 1.685 0.521 3.457 0.074 5.314v0l-1.211 1.183c-0.38 1.585-1.111 2.911-2.19 3.978-1.082 1.073-2.373 1.818-3.875 2.233-1.5 0.41-3.097 0.411-4.792 0.005zM172.199 30.361v0c1.461 0.351 2.853 0.32 4.175-0.091 1.313-0.406 2.442-1.118 3.386-2.134 0.945-1.017 1.593-2.259 1.946-3.727v0c0.357-1.487 0.345-2.899-0.036-4.233-0.38-1.335-1.064-2.481-2.049-3.439-0.991-0.966-2.217-1.624-3.679-1.975v0c-1.442-0.346-2.827-0.314-4.155 0.095-1.326 0.403-2.468 1.111-3.426 2.125-0.958 1.014-1.615 2.264-1.972 3.752v0c-0.352 1.468-0.332 2.871 0.062 4.209 0.393 1.338 1.09 2.487 2.089 3.448 0.998 0.967 2.217 1.624 3.659 1.97zM180.501 34.197v0c-0.325-0.078-0.561-0.238-0.709-0.479-0.153-0.25-0.194-0.524-0.122-0.823v0l1.533-6.391 1.165-1.936 1.432 0.343-2.036 8.487c-0.072 0.299-0.226 0.526-0.462 0.682-0.229 0.151-0.496 0.19-0.801 0.117z" fill="#ffffff" data-fill-palette-color="primary"></path><path d="M196.003 41.453v0c-1.12-0.554-2.189-1.337-3.209-2.348-1.02-1.011-1.699-2.2-2.036-3.567v0c-0.067-0.301-0.022-0.566 0.136-0.794 0.151-0.231 0.387-0.375 0.706-0.433v0c0.29-0.043 0.547 0.017 0.771 0.181 0.228 0.172 0.369 0.391 0.424 0.657v0c0.255 1.036 0.758 1.918 1.508 2.646 0.75 0.729 1.649 1.352 2.697 1.871v0c1.802 0.892 3.236 1.202 4.301 0.932 1.074-0.273 1.823-0.838 2.247-1.695v0c0.412-0.832 0.353-1.722-0.177-2.67-0.539-0.945-1.584-1.95-3.136-3.016v0c-1.995-1.36-3.296-2.723-3.903-4.088-0.606-1.366-0.628-2.617-0.065-3.755v0c0.53-1.072 1.245-1.847 2.146-2.325 0.903-0.47 1.915-0.662 3.036-0.578 1.121 0.085 2.28 0.424 3.477 1.016v0c1.461 0.723 2.564 1.596 3.309 2.621 0.745 1.025 1.211 2.131 1.398 3.319v0c0.067 0.301 0.013 0.562-0.162 0.781-0.175 0.219-0.441 0.333-0.796 0.343v0c-0.263 0.004-0.504-0.074-0.723-0.234-0.213-0.157-0.353-0.387-0.419-0.688v0c-0.192-0.952-0.584-1.794-1.176-2.527-0.586-0.729-1.381-1.343-2.387-1.841v0c-1.353-0.669-2.547-0.899-3.583-0.688-1.033 0.204-1.751 0.714-2.154 1.528v0c-0.278 0.563-0.364 1.128-0.257 1.695 0.098 0.57 0.431 1.178 0.998 1.824 0.564 0.637 1.393 1.334 2.487 2.091v0c1.501 1.003 2.591 1.994 3.27 2.971 0.679 0.977 1.049 1.902 1.109 2.773 0.066 0.875-0.091 1.699-0.473 2.471v0c-0.498 1.006-1.256 1.726-2.276 2.161-1.011 0.431-2.141 0.584-3.391 0.458-1.243-0.123-2.476-0.487-3.697-1.092z" fill="#ffffff" data-fill-palette-color="primary"></path><path d="M217.576 55.392l-0.654-0.497c-1.031-0.818-1.781-1.769-2.248-2.855-0.463-1.091-0.608-2.224-0.435-3.401 0.173-1.177 0.658-2.29 1.455-3.337v0l10.812-14.222c0.202-0.266 0.446-0.421 0.73-0.465 0.286-0.034 0.551 0.042 0.796 0.228v0c0.266 0.202 0.421 0.446 0.464 0.731 0.034 0.286-0.05 0.562-0.251 0.828v0l-10.812 14.222c-0.841 1.106-1.183 2.268-1.027 3.486 0.156 1.218 0.777 2.24 1.862 3.064v0l0.63 0.479c0.266 0.202 0.421 0.446 0.464 0.731 0.038 0.281-0.046 0.557-0.252 0.828v0c-0.186 0.245-0.421 0.389-0.706 0.432-0.286 0.034-0.562-0.05-0.828-0.252zM227.306 41.468l-7.745-5.889c-0.229-0.174-0.36-0.387-0.395-0.639-0.029-0.249 0.043-0.487 0.217-0.716v0c0.174-0.229 0.384-0.362 0.632-0.401 0.249-0.029 0.487 0.043 0.716 0.217v0l7.745 5.888c0.229 0.174 0.362 0.384 0.401 0.632 0.034 0.253-0.035 0.493-0.209 0.722v0c-0.174 0.229-0.387 0.36-0.64 0.395-0.253 0.034-0.493-0.035-0.722-0.209z" fill="#ffffff" data-fill-palette-color="primary"></path><path d="M230.483 68.845v0c-1.266-1.404-2.075-2.936-2.429-4.595-0.354-1.66-0.251-3.307 0.307-4.944 0.562-1.631 1.563-3.095 3.002-4.391v0c1.454-1.31 3-2.173 4.64-2.59 1.639-0.416 3.244-0.397 4.814 0.059 1.57 0.455 2.955 1.348 4.153 2.677v0c1.185 1.315 1.928 2.758 2.23 4.33 0.302 1.562 0.169 3.111-0.398 4.648-0.558 1.537-1.538 2.938-2.943 4.203v0c-0.233 0.21-0.482 0.304-0.745 0.281-0.259-0.018-0.494-0.144-0.704-0.377v0l-10.572-11.731 1.392-1.254 10.954 12.154-1.939-0.37c1.187-1.007 2.033-2.124 2.537-3.352 0.504-1.227 0.653-2.463 0.448-3.708-0.209-1.25-0.795-2.409-1.756-3.475v0c-0.912-1.012-1.977-1.685-3.194-2.018-1.222-0.338-2.48-0.332-3.776 0.017-1.295 0.349-2.528 1.051-3.699 2.106v0c-1.156 1.042-1.964 2.201-2.423 3.478-0.454 1.282-0.55 2.577-0.287 3.887 0.263 1.31 0.891 2.515 1.884 3.617v0c0.626 0.695 1.373 1.285 2.242 1.77 0.873 0.49 1.689 0.762 2.448 0.815v0c0.274 0.014 0.507 0.119 0.7 0.313 0.188 0.199 0.285 0.426 0.291 0.682v0c0.016 0.337-0.069 0.597-0.253 0.782-0.19 0.189-0.444 0.265-0.764 0.229v0c-1.03-0.106-2.126-0.463-3.286-1.071-1.165-0.614-2.123-1.338-2.874-2.172z" fill="#ffffff" data-fill-palette-color="primary"></path><path d="M252.5 78.348l-0.736-1.229c1.385-0.665 2.765-1.005 4.143-1.02 1.371-0.011 2.627 0.284 3.765 0.887 1.145 0.599 2.061 1.472 2.747 2.618v0c0.467 0.779 0.736 1.444 0.807 1.993 0.074 0.54-0.155 0.899-0.686 1.076v0c-0.347 0.122-0.619 0.09-0.817-0.095-0.195-0.195-0.36-0.465-0.497-0.812-0.146-0.348-0.336-0.717-0.569-1.107v0c-0.614-1.026-1.375-1.809-2.282-2.348-0.91-0.545-1.876-0.819-2.898-0.822-1.016-0.007-2.008 0.28-2.977 0.859zM241.667 83.583v0c-0.161-0.269-0.207-0.541-0.138-0.816 0.071-0.284 0.239-0.505 0.502-0.663v0l15.002-8.98c0.287-0.172 0.563-0.217 0.831-0.135 0.269 0.072 0.484 0.243 0.645 0.513v0c0.172 0.287 0.224 0.563 0.157 0.828-0.064 0.257-0.24 0.471-0.526 0.642v0l-15.002 8.981c-0.264 0.158-0.532 0.21-0.806 0.155-0.271-0.063-0.493-0.238-0.665-0.525z" fill="#ffffff" data-fill-palette-color="primary"></path><path d="M252.281 106.869v0c-0.427-1.174-0.66-2.479-0.699-3.915-0.039-1.436 0.292-2.764 0.993-3.986v0c0.16-0.264 0.375-0.424 0.646-0.48 0.269-0.062 0.539-0.004 0.81 0.175v0c0.239 0.169 0.383 0.39 0.433 0.663 0.046 0.282-0.003 0.538-0.147 0.768v0c-0.531 0.925-0.777 1.91-0.738 2.955 0.039 1.045 0.258 2.117 0.657 3.215v0c0.687 1.89 1.509 3.105 2.466 3.645 0.966 0.544 1.897 0.654 2.795 0.328v0c0.873-0.317 1.445-1.001 1.716-2.053 0.263-1.055 0.202-2.504-0.183-4.347v0c-0.503-2.362-0.502-4.245 0.003-5.652 0.505-1.406 1.354-2.326 2.546-2.759v0c1.124-0.409 2.176-0.475 3.158-0.2 0.978 0.284 1.842 0.844 2.594 1.68 0.752 0.836 1.356 1.881 1.812 3.137v0c0.557 1.532 0.751 2.925 0.582 4.181-0.169 1.256-0.596 2.377-1.282 3.366v0c-0.16 0.264-0.379 0.415-0.656 0.451-0.278 0.037-0.549-0.063-0.813-0.301v0c-0.193-0.179-0.313-0.402-0.361-0.668-0.045-0.261 0.012-0.523 0.172-0.788v0c0.519-0.821 0.817-1.701 0.896-2.639 0.081-0.932-0.071-1.925-0.455-2.98v0c-0.516-1.419-1.221-2.41-2.115-2.973-0.888-0.566-1.759-0.693-2.612-0.383v0c-0.59 0.215-1.042 0.564-1.357 1.048-0.323 0.48-0.503 1.149-0.539 2.008-0.032 0.85 0.086 1.927 0.354 3.23v0c0.392 1.762 0.496 3.231 0.312 4.407-0.184 1.176-0.555 2.1-1.114 2.772-0.556 0.679-1.24 1.165-2.05 1.459v0c-1.055 0.383-2.101 0.38-3.138-0.011-1.029-0.386-1.951-1.057-2.767-2.011-0.814-0.948-1.453-2.062-1.919-3.342z" fill="#ffffff" data-fill-palette-color="primary"></path><path d="M12.726 185.569v0c-0.095-0.278-0.08-0.555 0.045-0.83 0.127-0.269 0.339-0.455 0.636-0.556v0l24.796-8.466c0.297-0.101 0.578-0.084 0.843 0.051 0.267 0.142 0.448 0.352 0.544 0.63v0c0.101 0.297 0.088 0.577-0.042 0.84-0.131 0.257-0.345 0.436-0.642 0.537v0l-12.621 4.309 17.899 8.796c0.153 0.075 0.276 0.167 0.37 0.276 0.087 0.111 0.158 0.246 0.212 0.404v0c0.101 0.297 0.085 0.571-0.048 0.821-0.133 0.25-0.332 0.434-0.595 0.553-0.27 0.12-0.571 0.107-0.903-0.041v0l-13.241-6.501-10.145 14.601c-0.19 0.27-0.426 0.428-0.706 0.474-0.274 0.044-0.525 0.003-0.752-0.124-0.221-0.129-0.374-0.32-0.46-0.574v0c-0.134-0.392-0.087-0.74 0.141-1.043v0l9.899-14.327-4.668-2.292-9.179 3.134c-0.297 0.101-0.576 0.091-0.836-0.032-0.263-0.129-0.445-0.342-0.547-0.64z" fill="#ffffff" data-fill-palette-color="primary"></path><path d="M38.219 233.368v0c-0.181-0.257-0.247-0.529-0.196-0.818 0.05-0.289 0.203-0.523 0.459-0.704v0l7.991-5.637c1.305-0.92 2.206-1.932 2.703-3.034 0.493-1.108 0.651-2.241 0.472-3.399-0.183-1.163-0.659-2.29-1.429-3.381v0c-0.755-1.07-1.634-1.888-2.638-2.455-1.01-0.563-2.043-0.84-3.1-0.83-1.065 0.008-2.043 0.325-2.932 0.953v0l-1.046-1.482c1.282-0.79 2.643-1.202 4.082-1.236 1.445-0.038 2.818 0.269 4.119 0.92 1.307 0.648 2.407 1.605 3.3 2.871v0c1.005 1.425 1.618 2.913 1.839 4.466 0.221 1.553 0.001 3.049-0.661 4.487-0.657 1.444-1.807 2.746-3.45 3.905v0l-7.991 5.637c-0.257 0.181-0.529 0.247-0.817 0.197-0.289-0.05-0.523-0.203-0.705-0.46zM28.938 220.21v0c-0.181-0.257-0.247-0.529-0.197-0.817 0.05-0.289 0.203-0.523 0.46-0.705v0l14.46-10.199c0.278-0.196 0.556-0.266 0.834-0.208 0.278 0.058 0.507 0.215 0.688 0.471v0c0.196 0.278 0.271 0.553 0.224 0.822-0.047 0.27-0.209 0.503-0.487 0.7v0l-14.46 10.199c-0.257 0.181-0.525 0.252-0.806 0.213-0.281-0.039-0.519-0.198-0.716-0.476z" fill="#ffffff" data-fill-palette-color="primary"></path><path d="M56.068 250.912v0c-0.237-0.206-0.366-0.454-0.387-0.747-0.021-0.292 0.071-0.557 0.277-0.794v0l11.587-13.373c0.223-0.257 0.476-0.392 0.76-0.402 0.283-0.011 0.544 0.087 0.781 0.292v0c0.257 0.223 0.396 0.471 0.415 0.744 0.02 0.273-0.082 0.539-0.305 0.796v0l-11.587 13.374c-0.206 0.237-0.449 0.371-0.732 0.4-0.282 0.03-0.552-0.067-0.809-0.29zM71.792 232.704v0c-0.348-0.302-0.539-0.684-0.573-1.145-0.033-0.462 0.11-0.877 0.43-1.246v0c0.363-0.419 0.77-0.619 1.221-0.599 0.451 0.02 0.841 0.172 1.17 0.457v0c0.313 0.271 0.509 0.627 0.587 1.066 0.084 0.444-0.056 0.875-0.419 1.294v0c-0.319 0.369-0.71 0.569-1.171 0.602-0.462 0.033-0.877-0.11-1.245-0.429z" fill="#ffffff" data-fill-palette-color="primary"></path><path d="M82.387 267.539v0c-0.412-0.207-0.598-0.588-0.559-1.144v0l0.544-19.567c0.03-0.284 0.147-0.517 0.35-0.699 0.197-0.185 0.442-0.271 0.736-0.259v0c0.293 0.012 0.532 0.117 0.716 0.314 0.182 0.203 0.267 0.451 0.255 0.745v0l-0.606 19.379-1.201-0.602 15.053-12.179c0.227-0.185 0.487-0.256 0.78-0.214 0.29 0.033 0.527 0.163 0.712 0.391v0c0.182 0.233 0.264 0.487 0.246 0.762-0.012 0.278-0.132 0.509-0.36 0.694v0l-15.281 12.21c-0.446 0.352-0.907 0.408-1.385 0.169z" fill="#ffffff" data-fill-palette-color="primary"></path><path d="M117.869 279.534v0c-1.871-0.386-3.449-1.152-4.733-2.297-1.286-1.139-2.19-2.543-2.711-4.213-0.523-1.663-0.586-3.456-0.189-5.379v0c0.403-1.949 1.146-3.583 2.23-4.901 1.092-1.323 2.413-2.271 3.963-2.844 1.556-0.565 3.224-0.664 5.003-0.297v0c1.753 0.362 3.222 1.092 4.408 2.189 1.185 1.097 2.009 2.441 2.472 4.03 0.462 1.596 0.499 3.329 0.113 5.2v0c-0.065 0.314-0.21 0.54-0.436 0.677-0.226 0.137-0.493 0.174-0.801 0.111v0l-15.661-3.234 0.383-1.854 16.231 3.351-1.814 0.853c0.365-1.534 0.385-2.952 0.06-4.254-0.325-1.302-0.943-2.401-1.856-3.299-0.914-0.891-2.084-1.484-3.51-1.778v0c-1.354-0.28-2.627-0.191-3.82 0.265-1.2 0.462-2.224 1.222-3.07 2.282-0.853 1.058-1.441 2.373-1.765 3.942v0c-0.319 1.544-0.28 2.974 0.116 4.291 0.397 1.316 1.094 2.432 2.092 3.348 0.999 0.909 2.235 1.515 3.706 1.819v0c0.929 0.192 1.894 0.224 2.896 0.096 1.002-0.127 1.831-0.396 2.489-0.805v0c0.229-0.151 0.479-0.205 0.75-0.163 0.276 0.05 0.492 0.177 0.648 0.38v0c0.217 0.27 0.305 0.537 0.264 0.801-0.04 0.258-0.203 0.47-0.489 0.636v0c-0.901 0.53-2.006 0.895-3.316 1.095-1.317 0.199-2.534 0.183-3.653-0.048z" fill="#ffffff" data-fill-palette-color="primary"></path><path d="M181.853 276.195v0c-1.474 0.411-2.878 0.584-4.214 0.519-1.344-0.069-2.565-0.36-3.665-0.872-1.098-0.505-2.044-1.202-2.839-2.089v0c-0.22-0.244-0.302-0.512-0.246-0.806 0.059-0.287 0.226-0.521 0.502-0.701v0c0.232-0.162 0.493-0.221 0.783-0.177 0.29 0.044 0.538 0.176 0.744 0.396v0c0.633 0.628 1.371 1.126 2.216 1.494 0.845 0.368 1.78 0.565 2.807 0.59 1.028 0.032 2.138-0.117 3.328-0.449v0c1.326-0.369 2.412-0.912 3.26-1.626 0.841-0.713 1.406-1.574 1.693-2.584 0.286-1.016 0.256-2.141-0.088-3.376v0c-0.429-1.538-1.348-2.683-2.757-3.434-1.403-0.753-3.28-0.969-5.63-0.646v0c-2.716 0.355-4.995 0.078-6.837-0.831-1.833-0.904-3.013-2.301-3.54-4.193v0c-0.384-1.377-0.375-2.676 0.027-3.897 0.402-1.221 1.148-2.289 2.238-3.204 1.089-0.921 2.45-1.609 4.084-2.064v0c1.216-0.339 2.39-0.455 3.523-0.348 1.141 0.112 2.184 0.383 3.129 0.813 0.952 0.428 1.733 0.932 2.345 1.51v0c0.239 0.211 0.358 0.476 0.357 0.795-0.003 0.313-0.139 0.569-0.41 0.77v0c-0.23 0.168-0.486 0.246-0.767 0.234-0.274-0.014-0.527-0.113-0.759-0.298v0c-0.464-0.398-1.016-0.76-1.655-1.088-0.644-0.32-1.394-0.523-2.251-0.611-0.858-0.094-1.834 0.012-2.928 0.317v0c-1.917 0.534-3.302 1.388-4.154 2.562-0.86 1.169-1.069 2.545-0.628 4.128v0c0.235 0.843 0.677 1.545 1.326 2.106 0.649 0.561 1.53 0.95 2.644 1.167 1.121 0.215 2.473 0.24 4.057 0.075v0c3.155-0.325 5.579 0.002 7.273 0.979 1.692 0.971 2.828 2.495 3.407 4.574v0c0.339 1.216 0.442 2.37 0.31 3.461-0.139 1.093-0.493 2.086-1.063 2.979-0.565 0.885-1.324 1.655-2.279 2.31-0.948 0.653-2.063 1.157-3.343 1.515z" fill="#ffffff" data-fill-palette-color="primary"></path><path d="M224.663 254.579v0c-0.265 0.168-0.541 0.219-0.826 0.154-0.286-0.065-0.512-0.23-0.68-0.495v0l-5.221-8.269c-0.852-1.35-1.817-2.301-2.893-2.854-1.082-0.549-2.205-0.764-3.37-0.645-1.171 0.123-2.321 0.541-3.45 1.255v0c-1.107 0.699-1.969 1.536-2.586 2.51-0.614 0.98-0.943 1.998-0.988 3.052-0.047 1.064 0.221 2.057 0.802 2.978v0l-1.533 0.968c-0.723-1.321-1.065-2.701-1.026-4.139 0.036-1.445 0.412-2.8 1.129-4.067 0.714-1.272 1.725-2.322 3.036-3.149v0c1.474-0.931 2.992-1.467 4.554-1.608 1.562-0.141 3.045 0.155 4.448 0.888 1.409 0.73 2.65 1.945 3.723 3.645v0l5.222 8.269c0.168 0.265 0.219 0.541 0.154 0.827-0.065 0.286-0.23 0.512-0.495 0.68zM211.049 263.176v0c-0.265 0.168-0.541 0.219-0.827 0.154-0.286-0.065-0.512-0.23-0.68-0.495v0l-9.447-14.961c-0.182-0.288-0.237-0.569-0.166-0.844 0.072-0.274 0.24-0.495 0.506-0.663v0c0.288-0.182 0.566-0.243 0.833-0.182 0.267 0.06 0.492 0.235 0.674 0.522v0l9.447 14.962c0.168 0.265 0.225 0.537 0.172 0.816-0.053 0.279-0.224 0.509-0.512 0.691zM206.389 255.796v0c-0.265 0.168-0.539 0.222-0.821 0.164-0.286-0.065-0.512-0.23-0.68-0.495v0l-9.335-14.784c-0.182-0.288-0.237-0.569-0.166-0.844 0.072-0.274 0.24-0.495 0.506-0.663v0c0.288-0.182 0.566-0.243 0.833-0.182 0.267 0.06 0.492 0.235 0.674 0.523v0l9.335 14.783c0.168 0.265 0.225 0.537 0.172 0.816-0.057 0.273-0.229 0.5-0.518 0.682z" fill="#ffffff" data-fill-palette-color="primary"></path><path d="M248.124 231.498v0c-1.245 1.484-2.701 2.53-4.37 3.136-1.667 0.616-3.373 0.768-5.116 0.456-1.749-0.316-3.355-1.088-4.819-2.315v0c-1.484-1.245-2.534-2.701-3.15-4.368-0.611-1.663-0.76-3.371-0.449-5.124 0.312-1.744 1.09-3.358 2.334-4.842v0c1.249-1.489 2.701-2.534 4.355-3.135 1.664-0.601 3.367-0.746 5.111-0.434 1.749 0.316 3.365 1.096 4.85 2.341v0c1.464 1.228 2.504 2.675 3.119 4.342 0.611 1.663 0.762 3.364 0.455 5.102-0.298 1.738-1.071 3.351-2.32 4.841zM246.565 230.191v0c0.983-1.172 1.585-2.446 1.806-3.821 0.225-1.381 0.088-2.729-0.412-4.046-0.49-1.318-1.329-2.475-2.517-3.471v0c-1.167-0.979-2.444-1.597-3.832-1.854-1.379-0.258-2.728-0.157-4.049 0.305-1.316 0.457-2.465 1.271-3.448 2.444v0c-0.966 1.152-1.563 2.42-1.793 3.806-0.229 1.386-0.103 2.743 0.379 4.07 0.491 1.327 1.33 2.489 2.517 3.485v0c1.167 0.979 2.444 1.592 3.832 1.84 1.397 0.247 2.757 0.137 4.082-0.33 1.325-0.467 2.47-1.276 3.435-2.428z" fill="#ffffff" data-fill-palette-color="primary"></path><path d="M273.447 206.663v0c-0.121 0.29-0.317 0.49-0.588 0.602-0.271 0.111-0.551 0.107-0.841-0.014v0l-16.203-6.754c-1.749-0.787-3.141-1.874-4.177-3.261-1.033-1.393-1.657-2.96-1.873-4.7-0.219-1.749 0.035-3.495 0.762-5.24v0c0.745-1.788 1.82-3.221 3.226-4.3 1.411-1.076 2.997-1.729 4.756-1.958 1.764-0.22 3.539 0.042 5.328 0.788v0c1.763 0.735 3.188 1.806 4.272 3.214 1.076 1.411 1.726 2.995 1.949 4.752 0.229 1.76-0.029 3.534-0.775 5.322v0c-0.673 1.615-1.626 2.919-2.857 3.912-1.228 1.001-2.573 1.616-4.036 1.845v0l10.469 4.364c0.29 0.121 0.493 0.31 0.609 0.569 0.117 0.258 0.109 0.545-0.021 0.859zM267.406 194.332v0c0.586-1.406 0.78-2.801 0.583-4.186-0.2-1.379-0.732-2.628-1.596-3.748-0.856-1.124-1.987-1.979-3.393-2.565v0c-1.43-0.596-2.849-0.804-4.256-0.624-1.398 0.177-2.657 0.68-3.777 1.509-1.122 0.835-1.976 1.955-2.562 3.361v0c-0.578 1.387-0.771 2.779-0.58 4.176 0.195 1.391 0.722 2.642 1.584 3.754 0.87 1.108 2.02 1.96 3.45 2.557v0c1.406 0.586 2.805 0.797 4.198 0.631 1.402-0.168 2.665-0.673 3.79-1.514 1.127-0.847 1.98-1.964 2.559-3.351z" fill="#ffffff" data-fill-palette-color="primary"></path><path d="M13.226 145.086c0-1.797 1.456-3.253 3.253-3.253 1.797 0 3.253 1.456 3.253 3.253 0 1.797-1.456 3.253-3.253 3.253-1.797 0-3.253-1.456-3.253-3.253z" fill="#ffffff" data-fill-palette-color="primary"></path><path d="M265.476 145.086c0-1.797 1.456-3.253 3.253-3.253 1.797 0 3.253 1.456 3.253 3.253 0 1.797-1.456 3.253-3.253 3.253-1.797 0-3.253-1.456-3.253-3.253z" fill="#ffffff" data-fill-palette-color="primary"></path></g></svg></g></svg></g></svg></g><g></g></svg></g></svg></g></svg></g><defs></defs></svg><rect width="512" height="320" fill="none" stroke="none" visibility="hidden"></rect></g></svg></g></svg>